<svg width="20" height="20" viewBox="0 0 20 20" fill="none" xmlns="http://www.w3.org/2000/svg">
<path d="M3.07206 9.39418C2.9925 9.31899 2.89891 9.26022 2.79663 9.22121C2.69436 9.18219 2.5854 9.16371 2.47599 9.1668C2.36657 9.1699 2.25883 9.19451 2.15893 9.23925C2.05902 9.28398 1.9689 9.34795 1.89372 9.42751C1.81854 9.50707 1.75977 9.60066 1.72075 9.70293C1.68174 9.8052 1.66325 9.91416 1.66635 10.0236C1.66944 10.133 1.69406 10.2407 1.73879 10.3406C1.78352 10.4405 1.8475 10.5307 1.92706 10.6058L9.42706 17.6892C9.58178 17.8355 9.78663 17.917 9.99956 17.917C10.2125 17.917 10.4173 17.8355 10.5721 17.6892L18.0729 10.6058C18.1542 10.5312 18.2198 10.4411 18.266 10.3408C18.3122 10.2405 18.338 10.1321 18.3419 10.0217C18.3459 9.91141 18.3278 9.8014 18.2889 9.6981C18.2499 9.59481 18.1908 9.50028 18.115 9.42001C18.0392 9.33974 17.9482 9.27534 17.8473 9.23053C17.7464 9.18573 17.6376 9.16142 17.5273 9.15901C17.4169 9.15661 17.3072 9.17616 17.2044 9.21653C17.1016 9.2569 17.0079 9.31728 16.9287 9.39418L9.99956 15.9375L3.07206 9.39418Z" fill="#57697C"/>
</svg>
